<!--?xml version="1.0" standalone="no"?-->
              <svg id="sw-js-blob-svg" viewBox="0 0 100 100" xmlns="http://www.w3.org/2000/svg" version="1.1">
                    <defs> 
                        <linearGradient id="sw-gradient" x1="0" x2="1" y1="1" y2="0">
                            <stop id="stop1" stop-color="rgba(248, 117, 55, 1)" offset="0%"></stop>
                            <stop id="stop2" stop-color="rgba(251, 168, 31, 1)" offset="100%"></stop>
                        </linearGradient>
                    </defs>
                <path fill="url(#sw-gradient)" d="M21.4,-25.4C27.4,-20.5,31.6,-13.4,33.6,-5.4C35.6,2.6,35.4,11.4,32.3,20.3C29.1,29.1,23.1,38,15,40.6C7,43.1,-3,39.5,-12.5,35.5C-22,31.6,-30.9,27.3,-36.7,19.9C-42.4,12.5,-45.1,2.1,-42.7,-6.8C-40.3,-15.7,-32.9,-23,-24.9,-27.6C-17,-32.2,-8.5,-34.1,-0.4,-33.6C7.7,-33.1,15.4,-30.4,21.4,-25.4Z" width="100%" height="100%" transform="translate(50 50)" stroke-width="0" style="transition: all 0.3s ease 0s;"></path>
              </svg>